<svg width="156" height="156" viewBox="0 0 156 156" fill="none" xmlns="http://www.w3.org/2000/svg">
<path d="M108.16 33.8056C108.16 37.7339 107.38 41.6238 105.864 45.2531C104.348 48.8825 102.127 52.1802 99.3263 54.9579C96.5257 57.7357 93.2009 59.9391 89.5417 61.4425C85.8825 62.9458 81.9606 63.7195 78 63.7195C74.0393 63.7195 70.1174 62.9458 66.4582 61.4425C62.7991 59.9391 59.4742 57.7357 56.6736 54.9579C53.873 52.1802 51.6514 48.8825 50.1358 45.2531C48.6201 41.6238 47.84 37.7339 47.84 33.8056L108.16 33.8056Z" fill="white"/>
<path d="M47.84 29.0193C47.84 25.0543 51.0807 21.84 55.0784 21.84H100.922C104.919 21.84 108.16 25.0543 108.16 29.0193V30.2159H47.84V29.0193Z" fill="white"/>
<path d="M65.936 42.1815C65.936 37.5556 69.7168 33.8056 74.3808 33.8056H81.6192C86.2831 33.8056 90.064 37.5556 90.064 42.1815V124.744C90.064 129.37 86.2831 133.12 81.6192 133.12H74.3808C69.7168 133.12 65.936 129.37 65.936 124.744V42.1815Z" fill="white"/>
<path d="M72.8 82.94C72.8 80.2117 75.1282 78 78 78C80.8719 78 83.2 80.2117 83.2 82.94V92.82C83.2 95.5483 80.8719 97.76 78 97.76C75.1282 97.76 72.8 95.5483 72.8 92.82V82.94Z" fill="#1D1D1F"/>
<path d="M81.9 91.585C81.9 93.6312 80.154 95.29 78 95.29C75.8461 95.29 74.1 93.6312 74.1 91.585C74.1 89.5388 75.8461 87.88 78 87.88C80.154 87.88 81.9 89.5388 81.9 91.585Z" fill="white"/>
</svg>
